<svg width="28" height="28" viewBox="0 0 28 28" fill="none" xmlns="http://www.w3.org/2000/svg">
<g clip-path="url(#clip0_37_3221)">
<g clip-path="url(#clip1_37_3221)">
<path d="M15.5469 14.0002L27.6797 1.86733C28.1068 1.44016 28.1068 0.747603 27.6797 0.320494C27.2525 -0.106614 26.5599 -0.106669 26.1328 0.320494L14 12.4533L1.86721 0.320494C1.44004 -0.106669 0.747481 -0.106669 0.320372 0.320494C-0.106736 0.747658 -0.106791 1.44022 0.320372 1.86733L12.4532 14.0001L0.320372 26.1329C-0.106791 26.5601 -0.106791 27.2527 0.320372 27.6798C0.421834 27.7815 0.542396 27.8621 0.67513 27.9171C0.807863 27.9721 0.950151 28.0003 1.09382 28.0001C1.23748 28.0003 1.37977 27.9721 1.5125 27.9171C1.64523 27.8621 1.76579 27.7815 1.86726 27.6798L14 15.547L26.1328 27.6798C26.3463 27.8933 26.6263 28.0001 26.9062 28.0001C27.1862 28.0001 27.466 27.8933 27.6797 27.6798C28.1068 27.2526 28.1068 26.5601 27.6797 26.1329L15.5469 14.0002Z" fill="white"/>
</g>
</g>
<defs>
<clipPath id="clip0_37_3221">
<rect width="28" height="28" fill="white"/>
</clipPath>
<clipPath id="clip1_37_3221">
<rect width="28" height="28" fill="white"/>
</clipPath>
</defs>
</svg>
