<svg width="15" height="16" viewBox="0 0 15 16" fill="none" xmlns="http://www.w3.org/2000/svg">
<path d="M7.49999 12.6875C2.59299 12.6875 0.160182 8.40969 0.0590492 8.2277C0.0203233 8.15803 0 8.07964 0 7.99994C0 7.92024 0.0203233 7.84185 0.0590492 7.77219C0.160182 7.59031 2.59299 3.3125 7.49999 3.3125C12.407 3.3125 14.8398 7.59031 14.9409 7.7723C14.9797 7.84197 15 7.92036 15 8.00006C15 8.07976 14.9797 8.15815 14.9409 8.22781C14.8398 8.40969 12.407 12.6875 7.49999 12.6875ZM1.02034 7.9993C1.57792 8.84434 3.7671 11.75 7.49999 11.75C11.2447 11.75 13.4242 8.84668 13.9796 8.0007C13.4221 7.15566 11.2329 4.25 7.49999 4.25C3.75526 4.25 1.57581 7.15332 1.02034 7.9993ZM7.49999 10.8125C5.94913 10.8125 4.68749 9.55086 4.68749 8C4.68749 6.44914 5.94913 5.1875 7.49999 5.1875C9.05085 5.1875 10.3125 6.44914 10.3125 8C10.3125 9.55086 9.05085 10.8125 7.49999 10.8125ZM7.49999 6.125C6.46616 6.125 5.62499 6.96617 5.62499 8C5.62499 9.03383 6.46616 9.875 7.49999 9.875C8.53381 9.875 9.37499 9.03383 9.37499 8C9.37499 6.96617 8.53381 6.125 7.49999 6.125Z" fill="#AFAFAF"/>
</svg>
